<svg width="24" height="21" viewBox="0 0 24 21" fill="none" xmlns="http://www.w3.org/2000/svg"><path d="M21.79 0H2.21c-.32 0-.629.122-.856.338C1.127.555 1 .848 1 1.155v18.69c0 .152.031.302.092.442.06.14.15.268.262.375A1.261 1.261 0 0 0 2.21 21h10.538v-8.137h-2.86v-3.15h2.86V7.35a3.66 3.66 0 0 1 .201-1.642 3.797 3.797 0 0 1 .908-1.407c.407-.4.9-.71 1.446-.91a4.179 4.179 0 0 1 1.713-.241c.856-.005 1.712.037 2.563.126v2.835H17.83c-1.386 0-1.65.63-1.65 1.543v2.027h3.3l-.429 3.15H16.18V21h5.61c.159 0 .316-.03.463-.088.147-.058.28-.143.393-.25.112-.107.201-.235.262-.375.06-.14.092-.29.092-.442V1.155a1.11 1.11 0 0 0-.092-.442c-.06-.14-.15-.267-.262-.375a1.215 1.215 0 0 0-.393-.25A1.26 1.26 0 0 0 21.79 0Z" fill="#071D72"/></svg>