<svg width="24" height="21" viewBox="0 0 24 21" fill="none" xmlns="http://www.w3.org/2000/svg">
    <g clip-path="url(#clip0_323_6778)">
        <path fill-rule="evenodd" clip-rule="evenodd" d="M12.9108 9.43125V9.40056C12.904 9.41085 12.8946 9.42114 12.8887 9.43125H12.9108Z" fill="#071D72"/>
        <path fill-rule="evenodd" clip-rule="evenodd" d="M0.996094 0V21H22.9961V0H0.996094ZM7.83892 17.4462H4.57489V8.07259H7.83892V17.4462ZM6.2069 6.7932H6.18534C5.09041 6.7932 4.38071 6.07315 4.38071 5.17315C4.38071 4.2534 5.11116 3.55375 6.22827 3.55375C7.34563 3.55375 8.03227 4.2534 8.05365 5.17315C8.05365 6.07315 7.34563 6.7932 6.2069 6.7932ZM19.6115 17.4462H16.3466V12.4313C16.3466 11.1717 15.8749 10.3119 14.6932 10.3119C13.7908 10.3119 13.2545 10.8908 13.0182 11.4516C12.9324 11.6519 12.9099 11.9304 12.9099 12.2112V17.4463H9.64442C9.64442 17.4463 9.68817 8.952 9.64442 8.07263H12.9099V9.40089C13.3438 8.76365 14.1181 7.85257 15.8524 7.85257C18.001 7.85257 19.6115 9.19195 19.6115 12.0709V17.4462Z" fill="#071D72"/>
    </g>
    <defs>
        <clipPath id="clip0_323_6778">
            <rect x="1" width="22" height="21" rx="1.20833" fill="white"/>
        </clipPath>
    </defs>
</svg>
