<svg xmlns="http://www.w3.org/2000/svg">
    <defs>
        <symbol id="arrow-down" viewBox="0 0 24 24" xmlns="http://www.w3.org/2000/svg">
            <path d="m6 9 6 6 6-6" stroke-width="3" stroke-linecap="round" stroke-linejoin="round"/>
        </symbol>
        <symbol id="close" viewBox="0 0 33 33" xmlns="http://www.w3.org/2000/svg">
            <path d="m24.75 8.25-16.5 16.5M8.25 8.25l16.5 16.5" stroke-width="2" stroke-linecap="round"
                  stroke-linejoin="round"/>
        </symbol>
        <symbol id="burger" viewBox="0 0 24 24" fill="none" xmlns="http://www.w3.org/2000/svg">
            <path d="M3 6h18M3 12h18M3 18h18" stroke="#1F2345" stroke-width="2" stroke-linecap="round"
                  stroke-linejoin="round"/>
        </symbol>
        <symbol id="arrow-up-down" viewBox="0 0 48 49" xmlns="http://www.w3.org/2000/svg">
            <path d="m22 34.5-8 8-8-8M14 42.5v-24M42 14.5l-8-8-8 8M34 30.5v-24" stroke-width="2"
                  stroke-linecap="round" stroke-linejoin="round"/>
        </symbol>
        <symbol id="arrow-right" viewBox="0 0 24 25" xmlns="http://www.w3.org/2000/svg">
            <path d="m9 18.5 6-6-6-6" stroke-width="3" stroke-linecap="round" stroke-linejoin="round"/>
        </symbol>
        <symbol id="arrow-left" viewBox="0 0 24 24" xmlns="http://www.w3.org/2000/svg">
            <path d="m15 6-6 6 6 6" stroke-width="3" stroke-linecap="round" stroke-linejoin="round"/>
        </symbol>
        <symbol id="arrow-line" viewBox="0 0 12 16" xmlns="http://www.w3.org/2000/svg">
            <path d="M6 0 .226 10h11.547L6 0Zm1 16V9H5v7h2Z"/>
        </symbol>
        <symbol id="facebook" viewBox="0 0 24 21" xmlns="http://www.w3.org/2000/svg">
            <path d="M21.79 0H2.21c-.32 0-.629.122-.856.338C1.127.555 1 .848 1 1.155v18.69c0 .152.031.302.092.442.06.14.15.268.262.375A1.261 1.261 0 0 0 2.21 21h10.538v-8.137h-2.86v-3.15h2.86V7.35a3.66 3.66 0 0 1 .201-1.642 3.797 3.797 0 0 1 .908-1.407c.407-.4.9-.71 1.446-.91a4.179 4.179 0 0 1 1.713-.241c.856-.005 1.712.037 2.563.126v2.835H17.83c-1.386 0-1.65.63-1.65 1.543v2.027h3.3l-.429 3.15H16.18V21h5.61c.159 0 .316-.03.463-.088.147-.058.28-.143.393-.25.112-.107.201-.235.262-.375.06-.14.092-.29.092-.442V1.155a1.11 1.11 0 0 0-.092-.442c-.06-.14-.15-.267-.262-.375a1.215 1.215 0 0 0-.393-.25A1.26 1.26 0 0 0 21.79 0Z"/>
        </symbol>
        <symbol id="twitter" viewBox="0 0 24 21" xmlns="http://www.w3.org/2000/svg">
            <g clip-path="url(#a)">
                <path d="M23.913 2.706a9.476 9.476 0 0 1-2.827.812A5.13 5.13 0 0 0 23.249.665a9.599 9.599 0 0 1-3.125 1.252C19.226.915 17.947.288 16.532.288c-2.717 0-4.92 2.31-4.92 5.156 0 .404.044.799.127 1.175C7.649 6.404 4.024 4.35 1.596 1.23A5.334 5.334 0 0 0 .93 3.824c0 1.789.869 3.367 2.189 4.291a4.741 4.741 0 0 1-2.23-.644v.064c0 2.5 1.696 4.583 3.948 5.056a4.71 4.71 0 0 1-2.222.089c.626 2.048 2.444 3.54 4.597 3.581C5.528 17.645 3.406 18.47 1.1 18.47c-.397 0-.789-.024-1.174-.072a13.474 13.474 0 0 0 7.543 2.316c9.052 0 14-7.857 14-14.671 0-.224-.004-.446-.013-.667a10.293 10.293 0 0 0 2.457-2.67Z"/>
            </g>
            <defs>
                <clipPath id="a">
                    <path fill="#fff" d="M0 0h24v21H0z"/>
                </clipPath>
            </defs>
        </symbol>
        <symbol id="mail" viewBox="0 0 24 21" xmlns="http://www.w3.org/2000/svg">
            <path d="M24 .937C23.652.373 23.066 0 22.406 0H1.57C.923 0 .35.36 0 .904L12.026 12 24 .937Z"/>
            <path d="M0 3v15.852C0 20.033.844 21 1.875 21h20.25C23.156 21 24 20.033 24 18.852V3.057L12.037 14.5 0 3Z"/>
        </symbol>
        <symbol id="linkedin" viewBox="0 0 24 21" xmlns="http://www.w3.org/2000/svg">
            <g clip-path="url(#clip0_323_6778)">
                <path fill-rule="evenodd" clip-rule="evenodd"
                      d="M12.9108 9.43125V9.40056C12.904 9.41085 12.8946 9.42114 12.8887 9.43125H12.9108Z"/>
                <path fill-rule="evenodd" clip-rule="evenodd"
                      d="M0.996094 0V21H22.9961V0H0.996094ZM7.83892 17.4462H4.57489V8.07259H7.83892V17.4462ZM6.2069 6.7932H6.18534C5.09041 6.7932 4.38071 6.07315 4.38071 5.17315C4.38071 4.2534 5.11116 3.55375 6.22827 3.55375C7.34563 3.55375 8.03227 4.2534 8.05365 5.17315C8.05365 6.07315 7.34563 6.7932 6.2069 6.7932ZM19.6115 17.4462H16.3466V12.4313C16.3466 11.1717 15.8749 10.3119 14.6932 10.3119C13.7908 10.3119 13.2545 10.8908 13.0182 11.4516C12.9324 11.6519 12.9099 11.9304 12.9099 12.2112V17.4463H9.64442C9.64442 17.4463 9.68817 8.952 9.64442 8.07263H12.9099V9.40089C13.3438 8.76365 14.1181 7.85257 15.8524 7.85257C18.001 7.85257 19.6115 9.19195 19.6115 12.0709V17.4462Z"/>
            </g>
            <defs>
                <clipPath id="clip0_323_6778">
                    <rect x="1" width="22" height="21" rx="1.20833" fill="white"/>
                </clipPath>
            </defs>
        </symbol>
        <symbol id="search" viewBox="0 0 24 24" xmlns="http://www.w3.org/2000/svg">
            <path d="M11 19a8 8 0 1 0 0-16 8 8 0 0 0 0 16ZM21 21l-4.35-4.35" stroke-width="2"
                  stroke-linecap="round" stroke-linejoin="round"/>
        </symbol>
    </defs>
</svg>