<svg width="24" height="21" viewBox="0 0 24 21" fill="none" xmlns="http://www.w3.org/2000/svg"><g clip-path="url(#a)"><path d="M23.913 2.706a9.476 9.476 0 0 1-2.827.812A5.13 5.13 0 0 0 23.249.665a9.599 9.599 0 0 1-3.125 1.252C19.226.915 17.947.288 16.532.288c-2.717 0-4.92 2.31-4.92 5.156 0 .404.044.799.127 1.175C7.649 6.404 4.024 4.35 1.596 1.23A5.334 5.334 0 0 0 .93 3.824c0 1.789.869 3.367 2.189 4.291a4.741 4.741 0 0 1-2.23-.644v.064c0 2.5 1.696 4.583 3.948 5.056a4.71 4.71 0 0 1-2.222.089c.626 2.048 2.444 3.54 4.597 3.581C5.528 17.645 3.406 18.47 1.1 18.47c-.397 0-.789-.024-1.174-.072a13.474 13.474 0 0 0 7.543 2.316c9.052 0 14-7.857 14-14.671 0-.224-.004-.446-.013-.667a10.293 10.293 0 0 0 2.457-2.67Z" fill="#071D72"/></g><defs><clipPath id="a"><path fill="#fff" d="M0 0h24v21H0z"/></clipPath></defs></svg>